<svg
      version="1.1"
      id="Objects"
      xmlns="http://www.w3.org/2000/svg"
      xmlnsXlink="http://www.w3.org/1999/xlink"
      x="0px"
      y="0px"
      viewBox="500 -120 150 150"
      xmlSpace="preserve"
    >
      <g>
        <g>
          <ellipse
            style="opacity: 0.32; fill: #3D3D3D;"
            cx="569.1"
            cy="36.4"
            rx="31.1"
            ry="5.2"
          />
          <g>
            <path
              style="fill: #E56E00;"
              d="M598.2,17.7c-16.7-4-40.9-4.3-58.3,0.9c-6.6,2.3-28.5,6.6-26.3-13.7c6.4-33.3,11.5-65.4,9.6-93.3
				c0-6.6,4.4-11,11-11l67.8,0.1c6.6,0,10.9,5.5,10.9,12.1c-2.3,29.5,4.7,55.5,11.5,91.7C627.4,23.7,605.7,19.7,598.2,17.7z"
            />
          </g>
          <g>
            <path
              style="fill: #FF7A00;"
              d="M598.9,11.4c-16.7-4-40.9-4.3-58.3,0.9c-6.6,2.3-28.3,7-26.1-13.3c6.4-33.3,10.3-64.9,8.4-92.8
				c0-6.6,5.4-12,12-12l67.8,0.1c6.6,0,10.9,5.5,10.9,12.1c-2.3,29.5,3.2,56.5,10.1,92.7C626.7,18.4,606.4,13.4,598.9,11.4z"
            />
          </g>
        </g>
      </g>
      <circle style="fill: #FFFFFF;" cx="545.9" cy="-73.4" r="10.4" />
      <circle style="fill: #1C1515;" cx="546.6" cy="-72.9" r="6.6" />
      <circle style="fill: #FFFFFF;" cx="590.9" cy="-73.4" r="10.4" />
      <circle style="fill: #1C1515;" cx="591.6" cy="-72.9" r="6.6" />
      <path
        style="fill: #1C1515;"
        d="M567.5-64c-3.5-0.4-4.1,1.8-4.1,1.8c0.4,4.2,4.1,5.2,4.1,5.2s3.8-1,4.1-5.2C571.6-62.2,571-64.4,567.5-64z"
      />
      <path
        style="fill: #FF7A00;"
        d="M614.4-52.9c4.2-20.3,12.8-16.2,12.8-16.2c13.1,14.8-9.5,37-9.5,37L614.4-52.9z"
      />
      <path
        style="fill: #FF7A00;"
        d="M519.4-29.7c0,0-23.5-21.3-11-36.6c0,0,9.1-4.3,14.2,15.8L519.4-29.7z"
      />
    </svg>