<svg role="img" xmlns:xlink="http://www.w3.org/1999/xlink" viewBox="0 0 21.716 30.823"><defs><style>.a{fill:#08615c;}.b{fill:#19aba3;}.c{fill:#65c5bf;}.d{fill:#fff;}.e{fill:#f63;}</style></defs><path class="a" d="M21.716,24.33a1.22,1.22,0,0,1-1.249,1.225H1.249A1.22,1.22,0,0,1,0,24.33V1.225A1.22,1.22,0,0,1,1.249,0H20.467a1.22,1.22,0,0,1,1.249,1.225Z" transform="translate(0 2.993)"/><path class="b" d="M2.067,24.809H21.557a1.46,1.46,0,0,0,.108-.479V1.225A1.22,1.22,0,0,0,20.416,0H1.249A1.22,1.22,0,0,0,0,1.225V24.386a1.22,1.22,0,0,0,1.249,1.225h.812v-.8Z"/><path class="c" d="M8.686,0H0V24.809H9.828a1.46,1.46,0,0,0,.108-.479V1.225A1.291,1.291,0,0,0,8.686,0Z" transform="translate(11.773)"/><path class="a" d="M2.282,0H1.249A1.22,1.22,0,0,0,0,1.225V27.047a1.22,1.22,0,0,0,1.249,1.225H2.282Z" transform="translate(0.218)"/><path class="d" d="M20.092,0H1.306A1.312,1.312,0,0,0,0,1.281,1.311,1.311,0,0,0,1.3,2.561H20.036V.006h.057Z" transform="translate(0.872 24.8)"/><path class="e" d="M0,0V4.526l.977-.8.761.8V0Z" transform="translate(3.27 26.297)"/><g transform="translate(4.145 9.743)"><path class="d" d="M2.226,4.153a2.316,2.316,0,0,1-.869-.161,3.127,3.127,0,0,1-.7-.423,2.919,2.919,0,0,1-.488-.64A2.194,2.194,0,0,1,0,2.077a2.194,2.194,0,0,1,.165-.852A1.469,1.469,0,0,1,.653.585a2.935,2.935,0,0,1,.7-.423A2.315,2.315,0,0,1,2.226,0a2.1,2.1,0,0,1,.6.106A2.06,2.06,0,0,1,3.31.317a2.246,2.246,0,0,1,.38.317,1.728,1.728,0,0,1,.273.373L3.2,1.381a1.373,1.373,0,0,0-.38-.423A1.122,1.122,0,0,0,2.226.8,2.1,2.1,0,0,0,1.681.9a1.714,1.714,0,0,0-.431.267,1.217,1.217,0,0,0-.273.423,1.494,1.494,0,0,0-.108.534,1.658,1.658,0,0,0,.108.534,1.168,1.168,0,0,0,.273.423,1.248,1.248,0,0,0,.431.267,1.576,1.576,0,0,0,.545.106,1.122,1.122,0,0,0,.6-.161.968.968,0,0,0,.38-.423l.761.373a1.728,1.728,0,0,1-.273.373,2.246,2.246,0,0,1-.38.317,1.855,1.855,0,0,1-.488.212C2.663,4.153,2.447,4.153,2.226,4.153Z"/><path class="d" d="M2.441,4.048,1.192,2.45l-.324.373V4.048H0V0H.869V1.809L2.333,0H3.418L1.788,1.915,3.526,4.042H2.441Z" transform="translate(4.578)"/><path class="d" d="M0,.64V0H1.465V.64Z" transform="translate(7.848 2.352)"/><path class="d" d="M1.192,4.048V1.119l-.7.69L0,1.275,1.306,0h.755V4.048Z" transform="translate(9.593)"/><path class="d" d="M.057,4.1v-.69c.431-.317.761-.585,1.033-.8a7.33,7.33,0,0,0,.653-.585c.165-.161.273-.317.38-.423a.931.931,0,0,0,.108-.373c0-.106,0-.161-.057-.212S2.067.913,2.01.857,1.9.8,1.794.752A2.477,2.477,0,0,0,1.522.7,3.012,3.012,0,0,0,.869.8C.7.908.545,1.013.38,1.119L0,.64A2.046,2.046,0,0,1,.7.161,2.521,2.521,0,0,1,1.573,0a2.1,2.1,0,0,1,.6.106,1.087,1.087,0,0,1,.488.267A.805.805,0,0,1,2.981.8a1.6,1.6,0,0,1,.108.534,2.524,2.524,0,0,1-.108.534,1.008,1.008,0,0,1-.324.479l-.545.534a8.425,8.425,0,0,1-.7.534H3.094v.746H.057Z" transform="translate(12.427)"/></g></svg>