<svg role="img" xmlns="http://www.w3.org/2000/svg" viewBox="0 0 31 29"><defs><style>.a{fill:#e6be94;}.b{fill:#996459;}.c{fill:#4bb9ec;}.d{fill:#ff4f19;}.e{fill:#5c546a;}.f{fill:#e3001e;}.g{fill:#ffebb7;}.h{fill:#7e5c62;}</style></defs><path class="a" d="M27,22H0V8.5H5.586L13.5,0l7.914,8.5H27Z" transform="translate(1 7)"/><rect class="b" width="6" height="6" transform="translate(13 22)"/><path class="c" d="M5.875,0H.125A.125.125,0,0,0,0,.125V2H6V.125A.125.125,0,0,0,5.875,0Z" transform="translate(13 21)"/><path class="d" d="M5.1,1.5,5.916.583A.3.3,0,0,0,5.941.2.542.542,0,0,0,5.5,0H.5C.224,0,0,.168,0,.375v2.25C0,2.832.224,3,.5,3h5a.542.542,0,0,0,.441-.2.3.3,0,0,0-.025-.385Z" transform="translate(15 1)"/><path class="e" d="M.5,7A.484.484,0,0,1,0,6.533V.467A.484.484,0,0,1,.5,0,.484.484,0,0,1,1,.467V6.533A.484.484,0,0,1,.5,7Z" transform="translate(15)"/><path class="d" d="M.038.332A.5.5,0,0,1,.5,0H10a.493.493,0,0,1,.422.249l3.5,5.923a.575.575,0,0,1,.017.548A.5.5,0,0,1,13.5,7H6a.482.482,0,0,1-.353-.158L.147.919A.568.568,0,0,1,.038.332Z" transform="translate(17 9)"/><path class="d" d="M13.962.332A.5.5,0,0,0,13.5,0H4a.493.493,0,0,0-.422.249L.078,6.172a.575.575,0,0,0-.017.548A.5.5,0,0,0,.5,7H8a.482.482,0,0,0,.353-.158l5.5-5.923A.568.568,0,0,0,13.962.332Z" transform="translate(0 9)"/><path class="f" d="M16.527,9a.47.47,0,0,1-.334-.139L8.5,1.144.807,8.861a.473.473,0,0,1-.668-.67L8.166.139a.471.471,0,0,1,.668,0l8.027,8.052A.474.474,0,0,1,16.527,9Z" transform="translate(7 7)"/><circle class="g" cx="3" cy="3" r="3" transform="translate(13 13)"/><path class="e" d="M1.6,0a.4.4,0,0,0-.4.4v.8H.4A.4.4,0,1,0,.4,2H1.6A.4.4,0,0,0,2,1.6V.4A.4.4,0,0,0,1.6,0Z" transform="translate(14 13)"/><g transform="translate(19 16)"><path class="c" d="M2.4,1.3A1.251,1.251,0,0,0,1.2,0,1.251,1.251,0,0,0,0,1.3a1.405,1.405,0,0,0,.024.259H0V3.63H2.4V1.556H2.376A1.4,1.4,0,0,0,2.4,1.3Z" transform="translate(0.467 0.519)"/><path class="h" d="M2.88,4.667H.48A.5.5,0,0,1,0,4.148V1.814A1.753,1.753,0,0,1,1.68,0,1.753,1.753,0,0,1,3.36,1.814V4.148A.5.5,0,0,1,2.88,4.667ZM.96,3.111V3.63H2.4V3.111Zm.72-2.074a.751.751,0,0,0-.72.778v.26H2.4v-.26A.751.751,0,0,0,1.68,1.037Z"/></g><g transform="translate(8 22)"><rect class="c" width="2.4" height="2.52" transform="translate(0.48 0.42)"/><path class="h" d="M2.88,3.36H.48A.453.453,0,0,1,0,2.94V.42A.453.453,0,0,1,.48,0h2.4a.453.453,0,0,1,.48.42V2.94A.453.453,0,0,1,2.88,3.36ZM.96,2.1v.42H2.4V2.1ZM.96.84v.42H2.4V.84Z"/></g><g transform="translate(3 22)"><rect class="c" width="2.358" height="2.52" transform="translate(0.518 0.42)"/><path class="h" d="M2.83,3.36H.472A.448.448,0,0,1,0,2.94V.42A.449.449,0,0,1,.472,0H2.83A.449.449,0,0,1,3.3.42V2.94A.448.448,0,0,1,2.83,3.36ZM.943,2.1v.42H2.358V2.1Zm0-1.26v.42H2.358V.84Z" transform="translate(0.046)"/></g><g transform="translate(24 22)"><rect class="c" width="2.4" height="2.52" transform="translate(0.48 0.42)"/><path class="h" d="M2.88,3.36H.48A.453.453,0,0,1,0,2.94V.42A.453.453,0,0,1,.48,0h2.4a.453.453,0,0,1,.48.42V2.94A.453.453,0,0,1,2.88,3.36ZM.96,2.1v.42H2.4V2.1ZM.96.84v.42H2.4V.84Z"/></g><g transform="translate(19 22)"><rect class="c" width="2.358" height="2.52" transform="translate(0.518 0.42)"/><path class="h" d="M2.83,3.36H.472A.448.448,0,0,1,0,2.94V.42A.449.449,0,0,1,.472,0H2.83A.449.449,0,0,1,3.3.42V2.94A.448.448,0,0,1,2.83,3.36ZM.943,2.1v.42H2.358V2.1Zm0-1.26v.42H2.358V.84Z" transform="translate(0.046)"/></g><g transform="translate(24 16)"><path class="c" d="M2.358,1.3A1.242,1.242,0,0,0,1.179,0,1.242,1.242,0,0,0,0,1.3a1.43,1.43,0,0,0,.024.259H0V3.63H2.358V1.556H2.334A1.43,1.43,0,0,0,2.358,1.3Z" transform="translate(0.505 0.519)"/><path class="h" d="M2.83,4.667H.472A.5.5,0,0,1,0,4.148V1.814A1.74,1.74,0,0,1,1.651,0,1.74,1.74,0,0,1,3.3,1.814V4.148A.5.5,0,0,1,2.83,4.667ZM.943,3.111V3.63H2.358V3.111Zm.707-2.074a.746.746,0,0,0-.707.778v.26H2.358v-.26A.746.746,0,0,0,1.651,1.037Z" transform="translate(0.046)"/></g><g transform="translate(3 16)"><path class="c" d="M2.358,1.3A1.242,1.242,0,0,0,1.179,0,1.242,1.242,0,0,0,0,1.3a1.43,1.43,0,0,0,.024.259H0V3.63H2.358V1.556H2.334A1.43,1.43,0,0,0,2.358,1.3Z" transform="translate(0.505 0.519)"/><path class="h" d="M2.83,4.667H.472A.5.5,0,0,1,0,4.148V1.814A1.74,1.74,0,0,1,1.651,0,1.74,1.74,0,0,1,3.3,1.814V4.148A.5.5,0,0,1,2.83,4.667ZM.943,3.111V3.63H2.358V3.111Zm.707-2.074a.746.746,0,0,0-.707.778v.26H2.358v-.26A.746.746,0,0,0,1.651,1.037Z" transform="translate(0.046)"/></g><g transform="translate(8 16)"><path class="c" d="M2.358,1.3A1.242,1.242,0,0,0,1.179,0,1.242,1.242,0,0,0,0,1.3a1.43,1.43,0,0,0,.024.259H0V3.63H2.358V1.556H2.334A1.43,1.43,0,0,0,2.358,1.3Z" transform="translate(0.492 0.519)"/><path class="h" d="M2.83,4.667H.472A.5.5,0,0,1,0,4.148V1.814A1.74,1.74,0,0,1,1.651,0,1.74,1.74,0,0,1,3.3,1.814V4.148A.5.5,0,0,1,2.83,4.667ZM.943,3.111V3.63H2.358V3.111Zm.707-2.074a.746.746,0,0,0-.707.778v.26H2.358v-.26A.746.746,0,0,0,1.651,1.037Z" transform="translate(0.033)"/></g><path class="h" d="M3.5,7A3.5,3.5,0,1,1,7,3.5,3.5,3.5,0,0,1,3.5,7Zm0-6A2.5,2.5,0,1,0,6,3.5,2.5,2.5,0,0,0,3.5,1Z" transform="translate(13 12)"/><path class="h" d="M6.5,9A.5.5,0,0,1,6,8.5V3H3.986V8.5h-1V3H1V8.5a.5.5,0,1,1-1,0v-7A1.5,1.5,0,0,1,1.5,0h4A1.5,1.5,0,0,1,7,1.5v7A.5.5,0,0,1,6.5,9Zm-5-8a.5.5,0,0,0-.5.5V2H6V1.5A.5.5,0,0,0,5.5,1Z" transform="translate(13 20)"/><path class="e" d="M30.516,1H.484A.492.492,0,0,1,0,.5.492.492,0,0,1,.484,0H30.516A.492.492,0,0,1,31,.5.492.492,0,0,1,30.516,1Z" transform="translate(0 28)"/></svg>