<svg role="img" xmlns="http://www.w3.org/2000/svg" viewBox="0 0 30 28"><defs><style>.a{fill:#0cc;}.b{fill:#c8d2d1;}.c{fill:#e8e7e7;}.d{fill:#666;}.e{fill:#afb6b6;}.f{fill:#f4f4f4;}.g{fill:#009690;}</style></defs><path class="a" d="M30,23.593A2.462,2.462,0,0,1,27.5,26H2.5A2.462,2.462,0,0,1,0,23.593V2.407A2.462,2.462,0,0,1,2.5,0h25A2.462,2.462,0,0,1,30,2.407Z" transform="translate(0 2)"/><path class="b" d="M13,0V23H0l9-3.321L8.938,0Z" transform="translate(15 3)"/><rect class="c" width="13" height="23" transform="translate(2 3)"/><g transform="translate(5 7)"><path class="d" d="M1.061,4.255H0L1.685,0H2.87L4.554,4.253H3.495l-.281-.73H1.342l-.281.73ZM2.278.912,1.591,2.735H2.964Z" transform="translate(0.25 0.152)"/><path class="e" d="M0,0H2.808V.912H0Z" transform="translate(5.491 0.061)"/><path class="e" d="M0,0H2.808V.912H0Z" transform="translate(5.491 2.249)"/><path class="e" d="M0,0H2.808V.912H0Z" transform="translate(5.491 4.254)"/><path class="e" d="M0,0H7.987V.912H0Z" transform="translate(0.312 6.411)"/><path class="e" d="M0,0H7.987V.912H0Z" transform="translate(0.312 8.569)"/><path class="e" d="M0,0H7.987V.912H0Z" transform="translate(0.312 10.696)"/><path class="e" d="M0,0H7.987V.912H0Z" transform="translate(0.312 12.883)"/><path class="e" d="M0,0H3.994V.912H0Z" transform="translate(0.312 14.919)"/></g><g transform="translate(21 7)"><path class="e" d="M0,0H3.9V.912H0Z" transform="translate(0.061 0.061)"/><path class="e" d="M0,0H3.9V.912H0Z" transform="translate(0.061 2.249)"/><path class="e" d="M0,0H3.9V.912H0Z" transform="translate(0.061 4.254)"/><path class="e" d="M0,0H3.9V.912H0Z" transform="translate(0.061 6.411)"/><path class="e" d="M0,0H3.9V.912H0Z" transform="translate(0.061 8.569)"/><path class="e" d="M0,0H3.9V.912H0Z" transform="translate(0.061 10.696)"/><path class="e" d="M0,0H3.9V.912H0Z" transform="translate(0.061 12.883)"/><path class="e" d="M0,0H3.9V.912H0Z" transform="translate(0.061 14.919)"/></g><path class="f" d="M0,3.364,9,0V22.727L0,26Z" transform="translate(15)"/><path class="g" d="M26,1,0,.944V0L26,.056Z" transform="translate(2 26)"/></svg>