<svg role="img" xmlns="http://www.w3.org/2000/svg" viewBox="0 0 26.408 31.437"><defs><style>.a{fill:#f39c11;}.b{fill:#fc3;}.c{fill:#f4d34c;}</style></defs><path class="a" d="M9.588.471,14.88,0l3.393,2.8s.685,4.679.591,4.994c-.125.283-2.553,3.8-2.553,3.8l-3.486,1.665-2.584,4.334a31.229,31.229,0,0,0-4.2,0c-.218.188-4.483-.785-4.483-.785L.4,12.437,0,7.223S2.179,5.37,2.553,5.056C2.9,4.774,8.561,1.1,8.561,1.1Z" transform="translate(2.117 2.403)"/><ellipse class="b" cx="1.556" cy="1.57" rx="1.556" ry="1.57" transform="translate(13.759 6.14)"/><path class="b" d="M17.9,31.437H2.552V19.5A12.157,12.157,0,0,1,0,12.06,12.021,12.021,0,0,1,11.954,0,12.021,12.021,0,0,1,23.908,12.06a1.316,1.316,0,0,1-.076.4,2.959,2.959,0,0,0-.141.977c0,.008-.308.79,2.49,4.68a1.827,1.827,0,0,1,.011,1.754,1.287,1.287,0,0,1-1.039.821H23v2.575a5.133,5.133,0,0,1-1.5,3.635,5.044,5.044,0,0,1-3.6,1.516v3.014ZM5.72,16.424a.726.726,0,0,1,.507.19.558.558,0,0,1,.156.125.966.966,0,0,1,.156,1.005c-.126.348-.185.566.062.66.115.043.137.053.166.067s.083.036.3.122.264.105.3.122.057.025.167.067a.329.329,0,0,0,.114.024c.139,0,.21-.133.327-.355.018-.035.037-.071.058-.109a.971.971,0,0,1,.747-.628H9c.3,0,.564.2.778.6.154.286.242.436.4.436a.364.364,0,0,0,.128-.027,1.366,1.366,0,0,1,.148-.05,2.243,2.243,0,0,0,.319-.139c.216-.084.264-.1.3-.122s.054-.024.166-.067c.246-.093.188-.312.063-.66a.981.981,0,0,1,.093-1.005l.156-.157a.759.759,0,0,1,.567-.224,1.629,1.629,0,0,1,.429.067l.011,0a1.684,1.684,0,0,0,.4.08.237.237,0,0,0,.247-.176c.042-.112.053-.137.066-.166l.005-.012c.016-.037.039-.092.116-.294.084-.22.1-.267.12-.3s.025-.057.067-.169c.064-.257-.1-.318-.436-.44a.973.973,0,0,1-.623-.753v-.22c0-.309.194-.566.592-.786.347-.191.5-.285.4-.534-.029-.079-.04-.115-.047-.139l0-.009a2.083,2.083,0,0,0-.137-.323c-.076-.2-.1-.257-.115-.292l-.005-.012c-.014-.031-.025-.055-.067-.167a.219.219,0,0,0-.221-.173,1.543,1.543,0,0,0-.423.107l-.006,0a1.551,1.551,0,0,1-.493.1.728.728,0,0,1-.506-.189l-.077-.079-.078-.078a.994.994,0,0,1-.156-1c.126-.349.185-.567-.062-.66-.106-.04-.134-.052-.16-.064l-.006,0c-.036-.017-.08-.037-.3-.122-.259-.093-.3-.109-.339-.126l-.007,0c-.028-.012-.061-.025-.151-.059a.324.324,0,0,0-.114-.024c-.138,0-.209.133-.325.354-.019.037-.038.073-.059.111a.969.969,0,0,1-.747.627H8.685c-.3,0-.564-.2-.778-.6-.155-.286-.243-.435-.4-.435a.366.366,0,0,0-.129.027c-.09.034-.123.043-.147.05a2.187,2.187,0,0,0-.319.138c-.214.083-.263.1-.3.121s-.057.025-.169.068c-.247.092-.188.311-.062.659A.98.98,0,0,1,6.288,11.4a.531.531,0,0,1-.125.157.73.73,0,0,1-.553.225,1.788,1.788,0,0,1-.443-.068,1.377,1.377,0,0,0-.42-.11.231.231,0,0,0-.234.173c-.043.116-.053.139-.067.169s-.035.081-.12.3-.1.266-.12.3-.024.056-.067.169c-.084.223.054.3.328.444l.067.037.04.022a.972.972,0,0,1,.623.753v.22a.932.932,0,0,1-.591.785c-.347.191-.5.285-.405.534.032.087.043.123.05.146a2.1,2.1,0,0,0,.138.325c.084.22.1.267.12.3s.023.053.067.169a.231.231,0,0,0,.234.173,1.377,1.377,0,0,0,.42-.11A1.547,1.547,0,0,1,5.72,16.424ZM13.558,10.6a.6.6,0,0,1,.295.079.2.2,0,0,1,.112.038l.044.025a.75.75,0,0,1,.342.754c-.03.338-.034.5.187.534.087.011.125.014.151.017a2.663,2.663,0,0,1,.284.046c.233.039.26.041.3.045.024,0,.053.005.135.017.248,0,.28-.156.342-.468.035-.387.183-.608.467-.694.037-.012.064-.02.087-.026a.5.5,0,0,0,.1-.036.571.571,0,0,1,.125-.014.9.9,0,0,1,.622.328c.14.187.235.289.342.289a.248.248,0,0,0,.157-.069.871.871,0,0,1,.151-.138c.032-.023.085-.062.191-.145.179-.141.192-.153.228-.185.02-.018.047-.042.114-.1.18-.152.1-.272-.073-.535l-.02-.03a.777.777,0,0,1-.125-.849.205.205,0,0,1,.038-.111c.008-.014.016-.028.025-.045a.736.736,0,0,1,.747-.346c.1.009.175.015.241.015.191,0,.267-.053.288-.2.011-.091.014-.128.016-.157,0-.051.006-.074.046-.314a1.658,1.658,0,0,1,.036-.3,1.121,1.121,0,0,0,.026-.137c0-.251-.156-.283-.467-.346a.681.681,0,0,1-.685-.472c-.011-.035-.019-.061-.025-.084a.493.493,0,0,0-.037-.1.931.931,0,0,1,.343-.753c.176-.134.274-.226.285-.326a.237.237,0,0,0-.067-.177.91.91,0,0,1-.138-.154c-.023-.032-.062-.086-.143-.191-.14-.181-.151-.194-.183-.23-.018-.02-.041-.047-.1-.115a.227.227,0,0,0-.175-.1A.777.777,0,0,0,17.836,5l-.03.02a.984.984,0,0,1-.545.205.6.6,0,0,1-.295-.079.2.2,0,0,1-.111-.038l-.044-.025a.747.747,0,0,1-.343-.753c.031-.338.036-.5-.186-.535-.089-.011-.126-.014-.153-.017a2.675,2.675,0,0,1-.283-.045C15.6,3.7,15.56,3.7,15.52,3.692s-.055-.005-.142-.018c-.258,0-.313.139-.343.471a.685.685,0,0,1-.467.691h-.031a.529.529,0,0,1-.078.031.53.53,0,0,0-.078.031.47.47,0,0,1-.149.025.934.934,0,0,1-.6-.339c-.118-.158-.225-.289-.342-.289a.247.247,0,0,0-.156.069.915.915,0,0,1-.152.139c-.032.023-.085.062-.19.145-.181.141-.193.152-.229.185-.02.018-.047.042-.114.1-.18.151-.1.272.075.536l.019.029a.776.776,0,0,1,.124.848.21.21,0,0,1-.039.114c-.007.013-.015.027-.023.043a.738.738,0,0,1-.747.346L11.8,6.841c-.086-.008-.16-.015-.221-.015-.14,0-.225.034-.247.21-.011.087-.014.125-.016.151a2.74,2.74,0,0,1-.046.288c-.039.236-.041.263-.045.3,0,.025-.005.054-.017.137,0,.252.156.283.467.345a.681.681,0,0,1,.685.472v.031a.571.571,0,0,1,.03.077.545.545,0,0,0,.032.08.8.8,0,0,1-.311.786c-.176.133-.274.224-.285.325a.236.236,0,0,0,.068.177.888.888,0,0,1,.136.152c.023.032.062.086.144.193.139.18.151.194.182.23.018.02.041.047.1.116a.229.229,0,0,0,.175.1.781.781,0,0,0,.358-.178l.028-.019A.99.99,0,0,1,13.558,10.6Z"/><ellipse class="b" cx="1.868" cy="1.884" rx="1.868" ry="1.884" transform="translate(6.88 12.28)"/><ellipse class="c" cx="1.556" cy="1.57" rx="1.556" ry="1.57" transform="translate(13.759 6.14)"/><path class="c" d="M17.9,31.437H2.552V19.5A12.157,12.157,0,0,1,0,12.06,12.021,12.021,0,0,1,11.954,0,12.021,12.021,0,0,1,23.908,12.06a1.316,1.316,0,0,1-.076.4,2.959,2.959,0,0,0-.141.977c0,.008-.308.79,2.49,4.68a1.827,1.827,0,0,1,.011,1.754,1.287,1.287,0,0,1-1.039.821H23v2.575a5.133,5.133,0,0,1-1.5,3.635,5.044,5.044,0,0,1-3.6,1.516v3.014ZM5.72,16.424a.726.726,0,0,1,.507.19.558.558,0,0,1,.156.125.966.966,0,0,1,.156,1.005c-.126.348-.185.566.062.66.115.043.137.053.166.067s.083.036.3.122.264.105.3.122.057.025.167.067a.329.329,0,0,0,.114.024c.139,0,.21-.133.327-.355.018-.035.037-.071.058-.109a.971.971,0,0,1,.747-.628H9c.3,0,.564.2.778.6.154.286.242.436.4.436a.364.364,0,0,0,.128-.027,1.366,1.366,0,0,1,.148-.05,2.243,2.243,0,0,0,.319-.139c.216-.084.264-.1.3-.122s.054-.024.166-.067c.246-.093.188-.312.063-.66a.981.981,0,0,1,.093-1.005l.156-.157a.759.759,0,0,1,.567-.224,1.629,1.629,0,0,1,.429.067l.011,0a1.684,1.684,0,0,0,.4.08.237.237,0,0,0,.247-.176c.042-.112.053-.137.066-.166l.005-.012c.016-.037.039-.092.116-.294.084-.22.1-.267.12-.3s.025-.057.067-.169c.064-.257-.1-.318-.436-.44a.973.973,0,0,1-.623-.753v-.22c0-.309.194-.566.592-.786.347-.191.5-.285.4-.534-.029-.079-.04-.115-.047-.139l0-.009a2.083,2.083,0,0,0-.137-.323c-.076-.2-.1-.257-.115-.292l-.005-.012c-.014-.031-.025-.055-.067-.167a.219.219,0,0,0-.221-.173,1.543,1.543,0,0,0-.423.107l-.006,0a1.551,1.551,0,0,1-.493.1.728.728,0,0,1-.506-.189l-.077-.079-.078-.078a.994.994,0,0,1-.156-1c.126-.349.185-.567-.062-.66-.106-.04-.134-.052-.16-.064l-.006,0c-.036-.017-.08-.037-.3-.122-.259-.093-.3-.109-.339-.126l-.007,0c-.028-.012-.061-.025-.151-.059a.324.324,0,0,0-.114-.024c-.138,0-.209.133-.325.354-.019.037-.038.073-.059.111a.969.969,0,0,1-.747.627H8.685c-.3,0-.564-.2-.778-.6-.155-.286-.243-.435-.4-.435a.366.366,0,0,0-.129.027c-.09.034-.123.043-.147.05a2.187,2.187,0,0,0-.319.138c-.214.083-.263.1-.3.121s-.057.025-.169.068c-.247.092-.188.311-.062.659A.98.98,0,0,1,6.288,11.4a.531.531,0,0,1-.125.157.73.73,0,0,1-.553.225,1.788,1.788,0,0,1-.443-.068,1.377,1.377,0,0,0-.42-.11.231.231,0,0,0-.234.173c-.043.116-.053.139-.067.169s-.035.081-.12.3-.1.266-.12.3-.024.056-.067.169c-.084.223.054.3.328.444l.067.037.04.022a.972.972,0,0,1,.623.753v.22a.932.932,0,0,1-.591.785c-.347.191-.5.285-.405.534.032.087.043.123.05.146a2.1,2.1,0,0,0,.138.325c.084.22.1.267.12.3s.023.053.067.169a.231.231,0,0,0,.234.173,1.377,1.377,0,0,0,.42-.11A1.547,1.547,0,0,1,5.72,16.424ZM13.558,10.6a.6.6,0,0,1,.295.079.2.2,0,0,1,.112.038l.044.025a.75.75,0,0,1,.342.754c-.03.338-.034.5.187.534.087.011.125.014.151.017a2.663,2.663,0,0,1,.284.046c.233.039.26.041.3.045.024,0,.053.005.135.017.248,0,.28-.156.342-.468.035-.387.183-.608.467-.694.037-.012.064-.02.087-.026a.5.5,0,0,0,.1-.036.571.571,0,0,1,.125-.014.9.9,0,0,1,.622.328c.14.187.235.289.342.289a.248.248,0,0,0,.157-.069.871.871,0,0,1,.151-.138c.032-.023.085-.062.191-.145.179-.141.192-.153.228-.185.02-.018.047-.042.114-.1.18-.152.1-.272-.073-.535l-.02-.03a.777.777,0,0,1-.125-.849.205.205,0,0,1,.038-.111c.008-.014.016-.028.025-.045a.736.736,0,0,1,.747-.346c.1.009.175.015.241.015.191,0,.267-.053.288-.2.011-.091.014-.128.016-.157,0-.051.006-.074.046-.314a1.658,1.658,0,0,1,.036-.3,1.121,1.121,0,0,0,.026-.137c0-.251-.156-.283-.467-.346a.681.681,0,0,1-.685-.472c-.011-.035-.019-.061-.025-.084a.493.493,0,0,0-.037-.1.931.931,0,0,1,.343-.753c.176-.134.274-.226.285-.326a.237.237,0,0,0-.067-.177.91.91,0,0,1-.138-.154c-.023-.032-.062-.086-.143-.191-.14-.181-.151-.194-.183-.23-.018-.02-.041-.047-.1-.115a.227.227,0,0,0-.175-.1A.777.777,0,0,0,17.836,5l-.03.02a.984.984,0,0,1-.545.205.6.6,0,0,1-.295-.079.2.2,0,0,1-.111-.038l-.044-.025a.747.747,0,0,1-.343-.753c.031-.338.036-.5-.186-.535-.089-.011-.126-.014-.153-.017a2.675,2.675,0,0,1-.283-.045C15.6,3.7,15.56,3.7,15.52,3.692s-.055-.005-.142-.018c-.258,0-.313.139-.343.471a.685.685,0,0,1-.467.691h-.031a.529.529,0,0,1-.078.031.53.53,0,0,0-.078.031.47.47,0,0,1-.149.025.934.934,0,0,1-.6-.339c-.118-.158-.225-.289-.342-.289a.247.247,0,0,0-.156.069.915.915,0,0,1-.152.139c-.032.023-.085.062-.19.145-.181.141-.193.152-.229.185-.02.018-.047.042-.114.1-.18.151-.1.272.075.536l.019.029a.776.776,0,0,1,.124.848.21.21,0,0,1-.039.114c-.007.013-.015.027-.023.043a.738.738,0,0,1-.747.346L11.8,6.841c-.086-.008-.16-.015-.221-.015-.14,0-.225.034-.247.21-.011.087-.014.125-.016.151a2.74,2.74,0,0,1-.046.288c-.039.236-.041.263-.045.3,0,.025-.005.054-.017.137,0,.252.156.283.467.345a.681.681,0,0,1,.685.472v.031a.571.571,0,0,1,.03.077.545.545,0,0,0,.032.08.8.8,0,0,1-.311.786c-.176.133-.274.224-.285.325a.236.236,0,0,0,.068.177.888.888,0,0,1,.136.152c.023.032.062.086.144.193.139.18.151.194.182.23.018.02.041.047.1.116a.229.229,0,0,0,.175.1.781.781,0,0,0,.358-.178l.028-.019A.99.99,0,0,1,13.558,10.6Z"/><ellipse class="c" cx="1.868" cy="1.884" rx="1.868" ry="1.884" transform="translate(6.88 12.28)"/></svg>