<svg role="img" xmlns="http://www.w3.org/2000/svg" viewBox="0 0 30.754 27.441"><defs><style>.a{fill:#e8e8e8;}.b{fill:#0cf;}.c{fill:#fc6;}.d{fill:#d9491a;}.e{fill:#393939;}</style></defs><path class="a" d="M30.754,4.843V2.152A2.152,2.152,0,0,0,28.615,0H2.139A2.152,2.152,0,0,0,0,2.152v2.69Z"/><ellipse class="b" cx="1.123" cy="1.13" rx="1.123" ry="1.13" transform="translate(19.95 1.291)"/><ellipse class="c" cx="1.123" cy="1.13" rx="1.123" ry="1.13" transform="translate(23.213 1.291)"/><ellipse class="d" cx="1.123" cy="1.13" rx="1.123" ry="1.13" transform="translate(26.475 1.291)"/><path class="e" d="M0,20.447A2.152,2.152,0,0,0,2.139,22.6H28.615a2.152,2.152,0,0,0,2.139-2.152V0H0Z" transform="translate(0 4.843)"/><path class="c" d="M0,8.259V0H8.21l2.728,2.744H4.707l6.151,6.188L8.852,10.95,2.728,4.735V11Z" transform="translate(11.125 9.981)"/></svg>