<svg role="img" xmlns="http://www.w3.org/2000/svg" viewBox="0 0 32.195 34.807"><defs><style>.a{fill:#f19b1f;}.b{fill:#c02026;}.c{fill:#f16739;}.d{fill:#fff;}.e{fill:#676767;}</style></defs><path class="a" d="M10.785,11.149H6.83L0,0H3.946l6.839,11.149" transform="translate(12.569 23.657)"/><path class="b" d="M11.986,5.4A5.778,5.778,0,0,1,6.1,11.031,5.758,5.758,0,0,1,0,5.636,5.778,5.778,0,0,1,5.888,0a5.776,5.776,0,0,1,6.1,5.4" transform="translate(17.403 20.093)"/><path class="c" d="M29.747,13.966a2.393,2.393,0,0,0-.6-1.593,2.418,2.418,0,0,0,.4-1.344,2.449,2.449,0,0,0-1.511-2.265,2.461,2.461,0,0,0,.146-.829,2.428,2.428,0,0,0-2.243-2.431V5.5a2.431,2.431,0,0,0-2.426-2.44,2.215,2.215,0,0,0-.348.028,2.433,2.433,0,0,0-2.39-2.016,2.367,2.367,0,0,0-1.218.331A2.419,2.419,0,0,0,15.51.875a2.412,2.412,0,0,0-3.974.377,2.409,2.409,0,0,0-3.8,1.372,2.412,2.412,0,0,0-3.1,2.338v.009A1.9,1.9,0,0,0,4.4,4.962,2.431,2.431,0,0,0,1.978,7.4a2.483,2.483,0,0,0,.174.911A2.444,2.444,0,0,0,.3,10.68a2.4,2.4,0,0,0,.467,1.427,2.439,2.439,0,0,0,1.657,4.217,2.4,2.4,0,0,0,.256-.018,2.486,2.486,0,0,0,.586.064h7.1a2.358,2.358,0,0,0-.156.847,2.32,2.32,0,0,0,2.316,2.329H26.853a2.32,2.32,0,0,0,2.316-2.329,2.386,2.386,0,0,0-.394-1.307A2.41,2.41,0,0,0,29.747,13.966Z" transform="translate(1.289 8.426)"/><path class="d" d="M15.1,3.992a1.381,1.381,0,0,0-1.419-1.344,1.325,1.325,0,0,0-.934.506.725.725,0,0,1-.394.193.682.682,0,0,1-.7-.571A12.678,12.678,0,0,1,11.93.089,17.842,17.842,0,0,0,8.57.07.692.692,0,0,0,8.2.742a.716.716,0,0,0,.22.387,1.326,1.326,0,0,1,.549.911,1.42,1.42,0,0,1-2.82.3A1.462,1.462,0,0,1,6.5,1.322.7.7,0,0,0,6.62.917a.677.677,0,0,0-.5-.58c-.98.12-1.968.221-2.994.249.11.856.183,1.685.238,2.5a.675.675,0,0,1-.65.562.776.776,0,0,1-.394-.157,1.365,1.365,0,0,0-.98-.451A1.388,1.388,0,0,0,0,4.471,1.384,1.384,0,0,0,1.355,5.88a1.332,1.332,0,0,0,.952-.46.668.668,0,0,1,.4-.175.69.69,0,0,1,.678.709l.027-.046q-.014,1.146-.11,2.32c1.071.138,2.225.239,3.406.276a.658.658,0,0,0,.33-.58.735.735,0,0,0-.174-.405,1.345,1.345,0,0,1-.458-.957,1.416,1.416,0,0,1,2.829-.028,1.416,1.416,0,0,1-.449.985.785.785,0,0,0-.156.4A.667.667,0,0,0,9,8.5a17.508,17.508,0,0,0,3-.377c-.064-.783-.156-1.611-.229-2.449l.009.028a.693.693,0,0,1,.632-.746.784.784,0,0,1,.4.138,1.378,1.378,0,0,0,1,.405A1.409,1.409,0,0,0,15.1,3.992Z" transform="translate(9.024 13.611)"/><path class="e" d="M.751,5.257A.75.75,0,0,1,0,4.5V.755a.751.751,0,1,1,1.5,0V4.511A.748.748,0,0,1,.751,5.257Z" transform="translate(15.792)"/><path class="e" d="M.745,4.5A.748.748,0,0,1,.3,4.349.752.752,0,0,1,.15,3.3L2.393.3A.742.742,0,0,1,3.437.151.752.752,0,0,1,3.584,1.2L1.34,4.193A.724.724,0,0,1,.745,4.5Z" transform="translate(22.559 2.917)"/><path class="e" d="M2.988,4.506a.724.724,0,0,1-.6-.3L.15,1.2A.752.752,0,0,1,.3.151.742.742,0,0,1,1.34.3l2.243,3a.752.752,0,0,1-.146,1.05A.7.7,0,0,1,2.988,4.506Z" transform="translate(6.123 2.917)"/><path class="e" d="M3.727,3a.7.7,0,0,1-.33-.083L.412,1.414A.746.746,0,0,1,1.081.079L4.066,1.571A.756.756,0,0,1,3.727,3Z" transform="translate(0 9.722)"/><path class="e" d="M.747,3a.735.735,0,0,1-.668-.414.751.751,0,0,1,.33-1L3.393.079A.756.756,0,0,1,4.4.411a.746.746,0,0,1-.339,1l-2.985,1.5A.7.7,0,0,1,.747,3Z" transform="translate(27.716 9.722)"/></svg>